<svg version="1.2" xmlns="http://www.w3.org/2000/svg" viewBox="0 0 24 24" width="24" height="24">
	<title>customer-service</title>
	<defs>
		<clipPath clipPathUnits="userSpaceOnUse" id="cp1">
			<path d="m4.55 8.21c0.28-1.6 1.06-3.05 2.27-4.18 1.52-1.44 3.53-2.14 5.63-2.01 3.95 0.25 7.04 3.71 6.99 7.86-0.02 1.74-1.47 3.12-3.21 3.12h-2.4c-0.25-0.83-1-1.44-1.91-1.44-1.11 0-2 0.9-2 2 0 1.11 0.89 2 2 2 0.54 0 1.02-0.21 1.38-0.56h2.93c2.82 0 5.17-2.25 5.21-5.06 0.08-5.23-3.85-9.6-8.87-9.92-2.66-0.17-5.19 0.73-7.12 2.55-1.5 1.4-2.5 3.26-2.86 5.26-0.11 0.61 0.37 1.17 0.99 1.17 0.47 0 0.89-0.33 0.97-0.79zm3.45 5.12c-0.96-0.99-1.56-2.34-1.56-3.83 0-3.04 2.46-5.5 5.5-5.5 3.04 0 5.5 2.46 5.5 5.5q0 0.78-0.21 1.5h-2.35c-0.72-0.84-1.77-1.38-2.96-1.38-2.1 0-3.8 1.65-3.92 3.71zm8.67 5.1l-1.87 2.64c-0.36 0.53-1.14 0.53-1.49 0l-1.26-1.88-1.25 1.88c-0.36 0.53-1.14 0.53-1.49 0l-1.86-2.78c-1.62 1-2.87 2.52-3.46 4.41-0.09 0.31-0.04 0.64 0.15 0.89 0.19 0.26 0.49 0.41 0.81 0.41h14c0.31 0 0.61-0.15 0.8-0.41 0.19-0.25 0.25-0.58 0.15-0.89-0.56-1.8-1.72-3.27-3.23-4.27z"/>
		</clipPath>
	</defs>
	<style>
		.s0 { fill: #000000 } 
	</style>
	<g clip-path="url(#cp1)">
		<path class="s0" d="m4.6 8.2c0.2-1.6 1-3 2.2-4.2 1.5-1.4 3.5-2.1 5.6-2 4 0.3 7.1 3.7 7 7.9 0 1.7-1.4 3.1-3.2 3.1h-2.4c-0.2-0.8-1-1.4-1.9-1.4-1.1 0-2 0.9-2 2 0 1.1 0.9 2 2 2 0.6 0 1-0.3 1.4-0.6h2.9c2.9 0 5.2-2.2 5.2-5.1 0.1-5.2-3.8-9.6-8.8-9.9-2.7-0.2-5.2 0.8-7.2 2.6-1.5 1.4-2.4 3.2-2.8 5.2-0.1 0.6 0.4 1.2 1 1.2 0.5 0 0.9-0.3 1-0.8zm3.4 5.1c-1-1-1.6-2.3-1.6-3.8 0-3 2.5-5.5 5.5-5.5 3.1 0 5.5 2.5 5.5 5.5q0 0.8-0.2 1.5h-2.3c-0.7-0.8-1.8-1.4-3-1.4-2.1 0-3.8 1.7-3.9 3.7zm8.7 5.1l-1.9 2.7c-0.4 0.5-1.1 0.5-1.5 0l-1.2-1.9-1.3 1.9c-0.4 0.5-1.1 0.5-1.5 0l-1.8-2.8c-1.7 1-2.9 2.5-3.5 4.4-0.1 0.3 0 0.6 0.1 0.9 0.2 0.2 0.5 0.4 0.8 0.4h14c0.4 0 0.7-0.2 0.9-0.4 0.1-0.3 0.2-0.6 0.1-0.9-0.6-1.8-1.7-3.3-3.2-4.3z"/>
		<rect width="24" height="24" id="Color Fill 1" style="fill: #0b2650"/>
	</g>
</svg>