<svg width="56" height="49" viewBox="0 0 56 49" fill="none" xmlns="http://www.w3.org/2000/svg">
<path d="M5.72674 17.6381C8.32008 19.552 11.1441 20.9596 14.0969 21.8271C18.5219 19.3778 19.9144 13.6754 17.1182 9.46159C16.6197 8.71032 16.8247 7.69721 17.5761 7.19876C18.3275 6.70042 19.3407 6.90525 19.8393 7.65651C23.0072 12.4303 22.3108 18.7141 18.3347 22.6875C28.9592 23.9129 36.2545 19.1212 44.5331 13.4114C47.0546 15.1517 49.8925 17.1018 53.1344 19.1877C54.216 19.8837 55.6436 19.11 55.6508 17.824L55.7217 4.98067C55.729 3.68525 54.2916 2.89753 53.2031 3.60025C49.9345 5.71071 47.0709 7.68568 44.531 9.44309C36.2169 3.71964 30.3608 0 21.2207 0C15.7084 0 10.3508 1.80388 5.72674 5.21651C2.2388 7.7907 0.384528 10.3732 0.307258 10.4818C0.110966 10.758 0.00550415 11.0884 0.00550415 11.4273C0.00550415 11.7662 0.110966 12.0966 0.307258 12.3728C0.384528 12.4814 2.2388 15.0639 5.72674 17.6381ZM10.4139 8.44314C11.4087 7.75402 12.8457 8.43498 12.9457 9.64029C13.0853 10.8397 11.8032 11.7922 10.6958 11.3076C9.50123 10.8312 9.33646 9.14315 10.4139 8.44314ZM49.995 31.336C45.371 27.9234 40.0132 26.1195 34.501 26.1195C25.361 26.1195 19.5049 29.8392 11.1907 35.5627C8.65082 33.8052 5.78714 31.8303 2.5186 29.7198C1.43018 29.0171 -0.00715606 29.8049 2.68153e-05 31.1002L0.0709849 43.9435C0.0781678 45.2296 1.50571 46.0033 2.58738 45.3073C5.82915 43.2213 8.66714 41.2713 11.1887 39.5309C19.4672 45.2408 26.7625 50.0324 37.387 48.8071C33.4109 44.8336 32.7145 38.5497 35.8824 33.776C36.381 33.0248 37.3943 32.82 38.1457 33.3183C38.897 33.8168 39.1021 34.8299 38.6035 35.5811C35.8073 39.795 37.1998 45.4974 41.6249 47.9467C44.5776 47.0792 47.4018 45.6715 49.995 43.7576C53.4829 41.1834 55.3372 38.601 55.4145 38.4924C55.6108 38.2162 55.7163 37.8857 55.7163 37.5468C55.7163 37.208 55.6108 36.8775 55.4145 36.6013C55.3372 36.4926 53.4829 33.9101 49.995 31.336ZM45.0259 37.4271C43.9185 37.9118 42.6365 36.9593 42.7759 35.7598C42.8759 34.5545 44.3129 33.8736 45.3077 34.5627C46.3853 35.2627 46.2205 36.9508 45.0259 37.4271Z" fill="#0B2650"/>
</svg>
