<svg width="46" height="46" viewBox="0 0 46 46" fill="none" xmlns="http://www.w3.org/2000/svg">
<g clip-path="url(#clip0_84_551)">
<path d="M13.178 34.9571C12.5562 35.279 11.7915 35.071 11.4183 34.4785C11.0015 33.8168 10.2931 33.4219 9.52344 33.4219H9.19129C9.35525 33.8674 9.68354 34.2412 10.1261 34.4625C10.35 34.5745 10.5382 34.7465 10.6698 34.9594C10.8014 35.1723 10.8711 35.4177 10.8711 35.668C10.8711 35.9183 10.8014 36.1636 10.6698 36.3765C10.5382 36.5894 10.35 36.7615 10.1261 36.8734C9.68345 37.0947 9.35516 37.4685 9.19129 37.9141H9.52344C10.2931 37.9141 11.0015 37.5191 11.4182 36.8574C11.5982 36.5716 11.8789 36.3638 12.2048 36.2751C12.5307 36.1864 12.8781 36.2234 13.178 36.3787C15.1186 37.3832 16.9617 37.9141 18.5078 37.9141C20.9992 37.9141 22.8668 36.5788 23.8476 35.6724C22.8601 34.7659 20.9793 33.4219 18.5078 33.4219C16.9617 33.4219 15.1186 33.9528 13.178 34.9571ZM37.6708 23.6813C38.1134 23.46 38.4417 23.0862 38.6056 22.6406H38.2734C37.5037 22.6406 36.7954 23.0357 36.3786 23.6973C36.0054 24.2897 35.2407 24.4976 34.619 24.1759C32.6782 23.1715 30.8352 22.6406 29.2891 22.6406C26.7977 22.6406 24.93 23.9759 23.9493 24.8823C24.9368 25.7888 26.8175 27.1328 29.2891 27.1328C30.8351 27.1328 32.6782 26.6019 34.6189 25.5976C34.9188 25.4422 35.2661 25.4052 35.5921 25.4939C35.918 25.5826 36.1987 25.7904 36.3786 26.0762C36.7953 26.7379 37.5037 27.1328 38.2734 27.1328H38.6056C38.4416 26.6873 38.1133 26.3134 37.6708 26.0922C37.4469 25.9802 37.2587 25.8081 37.1271 25.5952C36.9955 25.3823 36.9258 25.137 36.9258 24.8867C36.9258 24.6364 36.9955 24.3911 37.1271 24.1782C37.2587 23.9653 37.4469 23.7932 37.6708 23.6813ZM1.2553 9.05454C1.56526 8.73173 1.93452 8.42043 2.36693 8.12223C3.57174 7.29145 5.25694 6.5568 7.37563 5.93885C11.5675 4.71626 17.1163 4.04297 23 4.04297C28.8837 4.04297 34.4325 4.71626 38.6244 5.93894C40.7432 6.55689 42.4283 7.29154 43.6331 8.12232C44.0655 8.42052 44.4348 8.73182 44.7447 9.05463C45.5176 8.34415 45.9102 7.5688 45.9102 6.73828C45.9102 5.5748 45.1441 4.51869 43.6331 3.59941C42.4283 2.86637 40.7431 2.21815 38.6244 1.67289C34.4325 0.594137 28.8837 0 23 0C17.1163 0 11.5675 0.594137 7.37563 1.67289C5.25685 2.21815 3.57174 2.86637 2.36693 3.59941C0.855941 4.51869 0.0898438 5.5748 0.0898438 6.73828C0.0898438 7.5688 0.482371 8.34415 1.2553 9.05454Z" fill="#0B2650"/>
<path d="M23.0002 6.73828C17.3647 6.73828 12.084 7.3733 8.13058 8.52635C5.78997 9.20907 4.40395 9.93303 3.63184 10.5371C4.66423 11.0041 5.91728 11.4283 7.3758 11.8037C11.5676 12.8825 17.1165 13.4766 23.0002 13.4766C28.8839 13.4766 34.4327 12.8825 38.6245 11.8037C40.0832 11.4283 41.3362 11.0042 42.3685 10.5371C41.5964 9.93295 40.2104 9.20898 37.8698 8.52635C33.9164 7.3733 28.6356 6.73828 23.0002 6.73828Z" fill="#0B2650"/>
<path d="M39.296 14.414C34.8914 15.5476 29.1039 16.1719 23 16.1719C16.8961 16.1719 11.1086 15.5476 6.70387 14.4139C4.32822 13.8027 2.39766 13.051 0.96591 12.1798C0.664183 11.9966 0.371796 11.7984 0.0898438 11.5859V38.3633C0.0898438 39.682 0.855941 40.8789 2.36693 41.9208C3.57174 42.7516 5.25694 43.4861 7.37563 44.1042C11.5675 45.3267 17.1163 46 23 46C28.8837 46 34.4325 45.3267 38.6244 44.1041C40.7432 43.4861 42.4283 42.7515 43.6331 41.9207C45.1441 40.8789 45.9102 39.682 45.9102 38.3633V11.5859C45.6282 11.7984 45.3358 11.9966 45.0341 12.1798C43.6022 13.051 41.6718 13.8027 39.296 14.414ZM16.2617 25.7852C16.2617 26.5295 15.6583 27.1329 14.9141 27.1329H9.52344C8.77917 27.1329 8.17578 26.5295 8.17578 25.7852C8.17578 25.0409 8.77917 24.4375 9.52344 24.4375H14.9141C15.6583 24.4375 16.2617 25.0409 16.2617 25.7852ZM4.58203 20.3946C4.58203 19.6503 5.18542 19.0469 5.92969 19.0469H10.4219C11.1661 19.0469 11.7695 19.6503 11.7695 20.3946C11.7695 21.1388 11.1661 21.7422 10.4219 21.7422H5.92969C5.18542 21.7422 4.58203 21.1388 4.58203 20.3946ZM26.7697 36.4816C26.642 36.6502 23.5851 40.6094 18.5078 40.6094C16.7847 40.6094 14.9089 40.1524 12.9196 39.2491C12.0134 40.1155 10.8085 40.6094 9.52344 40.6094H7.72656C6.9823 40.6094 6.37891 40.006 6.37891 39.2618V38.5754C6.37891 37.4898 6.75266 36.4718 7.40959 35.668C6.75266 34.8642 6.37891 33.8463 6.37891 32.7606V32.0743C6.37891 31.33 6.9823 30.7266 7.72656 30.7266H9.52344C10.8085 30.7266 12.0134 31.2205 12.9196 32.0869C14.9089 31.1836 16.7847 30.7266 18.5078 30.7266C23.5851 30.7266 26.642 34.6858 26.7697 34.8544C26.947 35.0886 27.043 35.3743 27.043 35.668C27.043 35.9618 26.947 36.2475 26.7697 36.4816ZM39.1719 40.6094H32.8828C32.1385 40.6094 31.5352 40.006 31.5352 39.2618C31.5352 38.5175 32.1385 37.9141 32.8828 37.9141H39.1719C39.9161 37.9141 40.5195 38.5175 40.5195 39.2618C40.5195 40.006 39.9161 40.6094 39.1719 40.6094ZM31.5352 33.8711C31.5352 33.1269 32.1385 32.5235 32.8828 32.5235H35.5781C36.3224 32.5235 36.9258 33.1269 36.9258 33.8711C36.9258 34.6154 36.3224 35.2188 35.5781 35.2188H32.8828C32.1385 35.2188 31.5352 34.6154 31.5352 33.8711ZM41.418 21.9793C41.418 23.065 41.0442 24.0829 40.3873 24.8868C41.0442 25.6906 41.418 26.7084 41.418 27.7942V28.4805C41.418 29.2248 40.8146 29.8282 40.0703 29.8282H38.2734C36.9884 29.8282 35.7834 29.3343 34.8773 28.4678C32.8878 29.3711 31.0121 29.8282 29.2891 29.8282C24.2118 29.8282 21.1549 25.8689 21.0272 25.7004C20.8498 25.4662 20.7538 25.1805 20.7538 24.8868C20.7538 24.593 20.8498 24.3073 21.0272 24.0731C21.1549 23.9046 24.2118 19.9454 29.2891 19.9454C31.0122 19.9454 32.8879 20.4024 34.8773 21.3057C35.7835 20.4392 36.9885 19.9454 38.2734 19.9454H40.0703C40.8146 19.9454 41.418 20.5487 41.418 21.293V21.9793Z" fill="#0B2650"/>
</g>
<defs>
<clipPath id="clip0_84_551">
<rect width="46" height="46" fill="white"/>
</clipPath>
</defs>
</svg>
