<svg width="61" height="61" viewBox="0 0 61 61" fill="none" xmlns="http://www.w3.org/2000/svg">
<path fill-rule="evenodd" clip-rule="evenodd" d="M7.00773 29.7031C6.62982 30.2815 5.73448 30.3124 5.3537 29.6029L2.95278 25.4824C2.82862 25.2643 2.79571 25.006 2.86123 24.7637C2.92674 24.5215 3.08537 24.3149 3.30254 24.1891C3.5197 24.0634 3.77778 24.0285 4.02052 24.0922C4.26325 24.156 4.47096 24.313 4.59835 24.5293L5.44711 25.9858C7.03478 12.7504 18.3033 2.62109 31.8176 2.62109C46.4868 2.62109 58.3789 14.5131 58.3789 29.1824C58.3789 36.3006 55.5463 43.0169 50.5993 47.9641C50.5111 48.0542 50.406 48.126 50.2899 48.1752C50.1739 48.2244 50.0492 48.2501 49.9231 48.2508C49.7971 48.2515 49.6721 48.2272 49.5555 48.1793C49.4389 48.1314 49.333 48.0608 49.2438 47.9717C49.1547 47.8826 49.0841 47.7766 49.0362 47.66C48.9883 47.5434 48.964 47.4185 48.9647 47.2924C48.9654 47.1663 48.9911 47.0417 49.0403 46.9256C49.0895 46.8096 49.1613 46.7044 49.2514 46.6163C58.8683 36.9994 58.8982 21.3954 49.2514 11.7486C39.6231 2.12023 24.012 2.12023 14.3836 11.7486C10.5845 15.5477 8.01995 20.5813 7.34192 26.1958L8.4398 24.7938C8.59576 24.598 8.82269 24.4717 9.07126 24.4424C9.31982 24.413 9.56991 24.483 9.76716 24.6371C9.96441 24.7912 10.0929 25.0169 10.1246 25.2651C10.1563 25.5134 10.0887 25.7642 9.93657 25.9629L7.00773 29.7031ZM2.62109 33.1249V55.1808H7.02024C7.02024 52.8883 8.87907 51.0296 11.1715 51.0296C13.464 51.0296 15.3227 52.8883 15.3227 55.1808H27.5771V51.0902H22.7205C22.4713 51.0863 22.2336 50.9845 22.0588 50.8069C21.884 50.6293 21.786 50.39 21.786 50.1408C21.786 49.8916 21.884 49.6523 22.0588 49.4747C22.2336 49.2971 22.4713 49.1953 22.7205 49.1914H27.5771V48.3003H16.8513C16.602 48.2964 16.3644 48.1946 16.1896 48.017C16.0147 47.8394 15.9167 47.6001 15.9167 47.3509C15.9167 47.1017 16.0147 46.8624 16.1896 46.6848C16.3644 46.5072 16.602 46.4054 16.8513 46.4015H27.5771V33.1249H19.3863V40.6558C19.3863 41.4893 18.3478 41.9773 17.7045 41.2701L15.6055 39.1274L13.4555 41.3223C12.8599 41.929 11.8276 41.5005 11.8276 40.6558H11.8247V33.1249H2.62109ZM12.7778 33.1249V40.6558L15.6055 37.7692L18.4332 40.6558V33.1249H12.7778ZM30.8074 47.3509H37.648L34.9748 42.0017H30.8074V47.3509ZM34.4593 51.9827C32.693 51.9827 31.2612 53.4146 31.2612 55.1808C31.2612 56.9471 32.693 58.3789 34.4593 58.3789C36.2255 58.3789 37.6574 56.9471 37.6574 55.1808C37.6574 53.4146 36.2255 51.9827 34.4593 51.9827ZM34.4593 53.8692C35.1837 53.8692 35.7709 54.4564 35.7709 55.1808C35.7709 55.9052 35.1837 56.4923 34.4593 56.4923C33.7349 56.4923 33.1477 55.9051 33.1477 55.1808C33.1477 54.4564 33.7349 53.8692 34.4593 53.8692ZM11.1716 51.9827C12.9378 51.9827 14.3697 53.4146 14.3697 55.1808C14.3697 56.9471 12.9378 58.3789 11.1716 58.3789C9.40532 58.3789 7.97349 56.9471 7.97349 55.1808C7.97337 53.4146 9.4052 51.9827 11.1716 51.9827ZM11.1715 53.8692C11.8958 53.8692 12.4831 54.4564 12.4831 55.1808C12.4831 55.9052 11.8958 56.4923 11.1715 56.4923C10.4471 56.4923 9.85996 55.9051 9.85996 55.1808C9.85996 54.4564 10.4472 53.8692 11.1715 53.8692ZM36.4157 39.5211H28.5899V55.1808H30.3081C30.3081 52.8883 32.1668 51.0296 34.4593 51.0296C36.7518 51.0296 38.6105 52.8883 38.6105 55.1808H40.4629V47.6196L36.4157 39.5211ZM37.648 48.304C38.3207 48.304 38.8711 47.5867 38.4574 46.8476L35.8236 41.5772C35.7447 41.4196 35.6236 41.287 35.4737 41.1943C35.3237 41.1016 35.151 41.0524 34.9747 41.0524V41.0485H30.8074C30.5546 41.0485 30.3122 41.1489 30.1334 41.3276C29.9547 41.5064 29.8543 41.7488 29.8543 42.0016V47.3508C29.8543 47.6036 29.9547 47.846 30.1334 48.0247C30.3122 48.2035 30.5546 48.3039 30.8074 48.3039H37.648V48.304ZM32.7707 10.4756V17.3091C35.0197 17.2624 37.2077 17.0528 39.3202 16.6678C37.7715 13.4965 35.4993 10.9686 32.7707 10.4756ZM27.3552 9.93478C23.8269 10.7361 20.6518 12.4665 18.1008 14.8555C19.3698 15.4066 20.817 15.8819 22.4033 16.2646C23.6018 13.6717 25.2584 11.3639 27.3552 9.93478ZM16.7304 16.2703C13.2154 20.2729 11.3424 25.5997 11.8165 31.2188H19.7741C19.7626 30.9668 19.7536 30.7147 19.7472 30.4625H17.3737C17.1209 30.4625 16.8785 30.3621 16.6997 30.1833C16.521 30.0046 16.4206 29.7621 16.4206 29.5093C16.4206 29.2566 16.521 29.0141 16.6997 28.8354C16.8785 28.6566 17.1209 28.5562 17.3737 28.5562H19.7471C19.8454 24.6869 20.5385 21.0859 21.6668 18.0411C19.9384 17.6073 18.3603 17.0652 16.9791 16.4352C16.888 16.3937 16.8041 16.338 16.7304 16.2703ZM42.1456 46.7229C47.7283 43.3661 51.5445 37.3714 51.8675 30.4625H43.8877C43.7894 34.3324 43.096 37.9339 41.9675 40.979C42.5363 41.1213 43.1011 41.2794 43.6611 41.4531C43.7804 41.4897 43.8913 41.5496 43.9875 41.6291C44.0837 41.7086 44.1633 41.8063 44.2217 41.9166C44.2801 42.0269 44.3162 42.1476 44.328 42.2719C44.3398 42.3961 44.327 42.5215 44.2903 42.6408C44.2536 42.7601 44.1938 42.871 44.1143 42.9672C44.0347 43.0634 43.937 43.1429 43.8267 43.2014C43.7165 43.2598 43.5957 43.2959 43.4715 43.3077C43.3472 43.3195 43.2219 43.3066 43.1026 43.27C42.4844 43.0784 41.8602 42.9068 41.231 42.7555C41.0606 43.1241 40.8833 43.4823 40.6994 43.829L42.1456 46.7229ZM51.8675 28.5562C51.4408 19.4292 44.919 11.8961 36.2799 9.9349C38.3764 11.3638 40.0333 13.6717 41.2315 16.2646C41.8606 16.1134 42.4846 15.9419 43.1026 15.7503C43.3423 15.6804 43.5999 15.7076 43.8197 15.8261C44.0394 15.9446 44.2038 16.1448 44.2771 16.3835C44.3505 16.6222 44.327 16.8801 44.2118 17.1016C44.0965 17.3231 43.8987 17.4903 43.6611 17.5672C43.1013 17.7408 42.5367 17.8989 41.9681 18.0412C43.0965 21.086 43.7897 24.687 43.8878 28.5563H51.8675V28.5562ZM30.8645 37.615V30.4625H21.654C21.6607 30.716 21.6702 30.9681 21.6822 31.2188H29.4834V37.615H30.8645ZM38.9665 40.3614C39.3479 40.4238 39.724 40.4913 40.0946 40.5632C41.1992 37.6785 41.8817 34.2144 41.9811 30.4624H32.7707V37.6148H37.5941L38.9665 40.3614ZM21.6538 28.5562H30.8643V19.2156C28.2901 19.1633 25.8233 18.9003 23.5397 18.457C22.4356 21.3413 21.7531 24.8047 21.6538 28.5562ZM32.7707 28.5562H41.9812C41.882 24.8047 41.1994 21.3412 40.0952 18.4569C37.7364 18.9156 35.2531 19.1648 32.7707 19.2156V28.5562ZM24.3148 16.6679C26.3406 17.0371 28.5459 17.2607 30.8645 17.309V10.4756C28.1358 10.9686 25.8627 13.4974 24.3148 16.6679Z" fill="#0B2650"/>
</svg>
