<svg width="56" height="56" viewBox="0 0 56 56" fill="none" xmlns="http://www.w3.org/2000/svg">
<path d="M42.5622 31.9008L41.308 30.9214C38.7782 28.9375 35.594 27.9791 32.3894 28.2369C29.6517 28.4503 27.0938 29.6833 25.2214 31.692L20.7368 36.4846L20.2561 36.5115C20.12 36.5028 19.9876 36.4638 19.8686 36.3973C19.7496 36.3308 19.647 36.2384 19.5683 36.1271C19.1558 35.5416 18.6085 35.064 17.9727 34.7345C17.3369 34.4049 16.6311 34.2331 15.9149 34.2336C15.5474 34.2336 15.1764 34.2791 14.8066 34.3701C14.4467 34.4611 13.4019 34.7679 12.6074 35.0549C13.2129 36.0746 14.4473 37.7901 15.6513 38.566H15.6524C15.9779 38.7773 16.211 39.1043 16.3047 39.4809C16.3985 39.8574 16.3459 40.2555 16.1576 40.5948C15.4599 41.8437 15.1753 43.9385 15.0668 45.0748C15.968 45.0013 17.0308 44.7814 17.3878 44.6916C18.1531 44.4986 18.8547 44.109 19.4229 43.5612C19.9911 43.0135 20.4062 42.3267 20.6271 41.569L20.7158 41.2633L21.0733 41.0166C21.2903 40.8999 21.54 40.876 21.7757 40.9495L27.7636 42.8313C30.5525 43.8632 32.873 43.8591 35.3242 42.822L35.8813 42.5916C38.8967 41.3288 41.3136 38.9586 42.6351 35.9684L43.24 34.5906C43.4423 34.1307 43.4855 33.6165 43.3628 33.1293C43.24 32.6422 42.9583 32.2099 42.5622 31.9008ZM38.6585 36.3931C38.4465 36.4467 38.2286 36.4737 38.0098 36.4736C37.4114 36.473 36.8303 36.2729 36.3585 35.9049C35.8866 35.5369 35.551 35.022 35.4047 34.4418V34.4401C35.2338 33.7499 35.3433 33.0201 35.7092 32.4105C36.0751 31.8009 36.6676 31.3611 37.3571 31.1874C37.6988 31.1002 38.0545 31.0819 38.4033 31.1337C38.7522 31.1855 39.0872 31.3062 39.3888 31.489C39.6915 31.6697 39.9554 31.9087 40.1651 32.1921C40.3749 32.4754 40.5264 32.7975 40.6109 33.1398C40.7823 33.8301 40.6731 34.5601 40.3071 35.17C39.9411 35.7798 39.3483 36.2196 38.6585 36.3931Z" fill="#0B2650"/>
<path d="M38.6115 32.784C38.4796 32.7044 38.3332 32.6518 38.1808 32.629C38.0284 32.6063 37.8731 32.614 37.7237 32.6515C37.4221 32.7277 37.1629 32.9202 37.0027 33.1869C36.8426 33.4536 36.7946 33.7729 36.8691 34.0749C36.9456 34.3763 37.1381 34.6354 37.4047 34.7956C37.6712 34.9557 37.9903 35.0041 38.2924 34.93C38.5171 34.873 38.72 34.7507 38.8754 34.5787C39.0309 34.4067 39.132 34.1925 39.1661 33.9632C39.2002 33.7338 39.1658 33.4995 39.0671 33.2897C38.9684 33.0799 38.8099 32.9039 38.6115 32.784ZM21.9614 2.33337H4.36341C3.8261 2.33384 3.31092 2.54749 2.93097 2.92743C2.55103 3.30738 2.33738 3.82256 2.33691 4.35987V14.7275H21.9614V2.33337ZM30.5008 18.0175C31.0386 18.0167 31.554 17.8026 31.9342 17.4223C32.3143 17.042 32.528 16.5264 32.5285 15.9886V2.33337H23.4717V15.9886C23.472 16.5264 23.6857 17.0421 24.0658 17.4225C24.446 17.8029 24.9615 18.0168 25.4993 18.0175H30.5008ZM53.6633 4.35987C53.6626 3.8226 53.4489 3.30751 53.069 2.9276C52.6891 2.5477 52.174 2.33399 51.6367 2.33337H34.0382V14.7275H53.6633V4.35987Z" fill="#0B2650"/>
<path d="M34.0137 16.2366C33.8836 18.0706 32.3663 19.5266 30.5008 19.5266H25.4993C23.6332 19.5266 22.1166 18.07 21.9865 16.2366H5.11475V51.6286C5.11521 52.169 5.33009 52.6871 5.71222 53.0693C6.09435 53.4514 6.6125 53.6663 7.15291 53.6667H48.8367C49.3773 53.6663 49.8955 53.4514 50.2778 53.0693C50.6602 52.6872 50.8753 52.1691 50.8761 51.6286V16.2366H34.0137ZM44.6227 35.1961L44.0172 36.5762C42.5399 39.9208 39.8365 42.5718 36.4637 43.9834L35.9089 44.2138C35.8307 44.2471 35.7532 44.2698 35.6756 44.3007C34.7014 45.8413 32.5501 48.2732 28.6581 48.2732C28.5 48.2732 28.3384 48.2692 28.1745 48.2598C27.9362 48.2479 27.7035 48.1826 27.4938 48.0687C27.2841 47.9548 27.1027 47.7952 26.9629 47.6018C26.8194 47.406 26.7215 47.1804 26.6765 46.9418C26.6315 46.7032 26.6405 46.4575 26.7027 46.2228C26.8982 45.4832 27.0253 44.8275 27.1134 44.2074L21.878 42.5642C21.5211 43.445 20.9616 44.2292 20.2448 44.8533C19.528 45.4773 18.6742 45.9235 17.7527 46.1557C16.9543 46.3419 16.1489 46.4962 15.3382 46.6183C15.2556 46.6306 15.1721 46.6368 15.0886 46.637C14.6933 46.6419 14.3115 46.4934 14.0234 46.2228C13.6845 45.8997 13.5177 45.4295 13.5649 44.9325C13.7102 43.3995 14.0502 41.2738 14.8401 39.8587L15.2426 39.1995L14.8337 39.8336C13.4692 38.9557 12.1719 37.2377 11.3237 35.9509C11.049 35.5338 10.9767 35.0409 11.1242 34.5976C11.2718 34.1542 11.6271 33.8031 12.0967 33.6339C12.8678 33.3604 13.6495 33.1176 14.4399 32.9059C16.6257 32.3617 18.8721 33.0576 20.3491 34.6909L24.1192 30.6612C24.1717 30.6058 24.2288 30.5568 24.2819 30.5026C24.181 29.4823 24.5998 28.4953 25.2613 27.3928C25.8196 26.4612 25.868 25.3972 25.8091 24.6669C25.7928 24.456 25.8217 24.2441 25.894 24.0453C25.9662 23.8465 26.08 23.6655 26.2279 23.5142C26.3771 23.3637 26.5559 23.2458 26.753 23.1681C26.9501 23.0904 27.1613 23.0545 27.373 23.0627C30.6735 23.236 32.4451 25.5798 33.1118 26.7062C36.4129 26.6374 39.6265 27.6833 42.2387 29.7332L43.4917 30.7114C44.1521 31.2267 44.6219 31.9474 44.8268 32.7597C45.0316 33.5719 44.9598 34.4292 44.6227 35.1961Z" fill="#0B2650"/>
<path d="M28.5674 44.6734C28.4653 45.3253 28.3299 45.9715 28.162 46.6095L28.2507 46.7542C30.4866 46.8603 32.0604 46.0349 33.1612 44.9966C31.6754 45.2212 30.1757 45.1185 28.5674 44.6734ZM26.1489 28.9205C27.7143 27.8354 29.5081 27.1246 31.3919 26.8433C30.6838 25.9076 29.3683 24.6785 27.294 24.5688C27.3897 25.4963 27.3203 26.8952 26.5555 28.1698C26.3869 28.4509 26.258 28.6942 26.1489 28.9205Z" fill="#0B2650"/>
</svg>
